<svg xmlns="http://www.w3.org/2000/svg" width="65.544" height="52.34" viewBox="0 0 65.544 52.34">
  <path id="Icon_ionic-ios-warning" data-name="Icon ionic-ios-warning" d="M31.874,6.667,3.974,50.72c-1.764,2.753.583,6.12,4.269,6.12H64.059c3.671,0,6.018-3.367,4.269-6.12L40.413,6.667A5.289,5.289,0,0,0,31.874,6.667Zm7.042,18.278-.567,16.629H33.938l-.567-16.629ZM36.143,50.625a2.765,2.765,0,0,1-3.009-2.508,2.765,2.765,0,0,1,3.009-2.508,2.765,2.765,0,0,1,3.009,2.508A2.765,2.765,0,0,1,36.143,50.625Z" transform="translate(-3.375 -4.5)" fill="#de0707"/>
</svg>
