<?xml version="1.0" encoding="utf-8"?>
<!-- Generator: Adobe Illustrator 21.1.0, SVG Export Plug-In . SVG Version: 6.00 Build 0)  -->
<svg version="1.1" id="ffb9f185-a300-41b8-a504-b1f9cab865bc"
	 xmlns="http://www.w3.org/2000/svg" xmlns:xlink="http://www.w3.org/1999/xlink" x="0px" y="0px" viewBox="0 0 806 712.7"
	 style="enable-background:new 0 0 806 712.7;" xml:space="preserve">
<style type="text/css">
	.st0{fill:#3F3D56;}
	.st1{fill:#6C63FF;}
	.st2{fill:#FFB7B7;}
	.st3{fill:#2F2E41;}
	.st4{fill:#CBCBCB;}
	.st5{fill:#FFFFFF;}
	.st6{fill:#E5E5E5;}
</style>
<path class="st0" d="M770.3,711.8l-1.1-0.4c-0.2-0.1-23.7-9.1-34.7-29.5c-11-20.4-5.6-44.9-5.6-45.2l0.3-1.1l1.1,0.4
	c0.2,0.1,23.7,9.1,34.7,29.5c11,20.4,5.6,44.9,5.6,45.2L770.3,711.8z M736.3,680.9c9.3,17.2,27.8,26.1,32.5,28.1
	c0.9-5,3.7-25.4-5.6-42.6c-9.3-17.2-27.8-26.1-32.5-28.1C729.8,643.3,727,663.7,736.3,680.9z"/>
<path class="st1" d="M742.9,674.7c19.8,11.9,27.4,35.5,27.4,35.5s-24.4,4.3-44.2-7.5s-27.4-35.5-27.4-35.5S723.2,662.8,742.9,674.7z
	"/>
<path class="st2" d="M424.8,382c3.8-5.8,11.5-7.5,17.3-3.7c0.4,0.3,0.8,0.5,1.1,0.8c0.4,0.4,0.8,0.7,1.2,1.2l49.2-7.2l2.7-37
	c0.4-5.9,5.6-10.4,11.5-9.9c5.9,0.4,10.4,5.6,9.9,11.5c0,0.1,0,0.1,0,0.2l-4.8,51.9l0,0.1c-1.3,4.1-5.1,6.9-9.4,6.8l-57.9-1
	c-0.2,0.3-0.5,0.7-0.7,1c-4.4,5.3-12.3,6.1-17.6,1.7c-0.4-0.3-0.7-0.6-1-1c-0.2-0.3-0.5-0.5-0.7-0.8
	C422.2,392.5,421.9,386.5,424.8,382z"/>
<polygon class="st2" points="524,697.5 510,697.5 503.3,643.3 524,643.3 "/>
<path class="st3" d="M527.6,711.1l-45.3,0v-0.6c0-9.7,7.9-17.6,17.6-17.6h0l27.6,0L527.6,711.1z"/>
<polygon class="st2" points="622.1,684.8 608.8,689.3 585,640.2 604.6,633.5 "/>
<path class="st3" d="M629.9,696.5L587,711.1l-0.2-0.5c-3.1-9.2,1.8-19.2,11-22.4l0,0l26.2-8.9L629.9,696.5z"/>
<path class="st3" d="M539.5,224.1c0,0-14-4.6-23,13.8s-23,38.8-23,38.8l8,1.8c0,0,2-12.9,7-14.8l-2,16.6c0,0,59.9,19.4,86.8-1.8
	l-1-6.5c0,0,4,0.9,4,6.5l3-2.8c0,0-3-5.5-12-12.9c-5.9-4.8-7.9-14.1-8.6-19.8c-0.6-4.9-2.6-9.5-6-13.1
	C566.8,223.6,555.9,216.8,539.5,224.1z"/>
<circle class="st2" cx="544.6" cy="263.1" r="25.5"/>
<path class="st4" d="M510.6,309.6l-4.6-1.5c0,0-9.3,3.9-9.3,10.8s-1.5,34.8-1.5,34.8L516,356L510.6,309.6z"/>
<path class="st2" d="M593.6,461.7c-4-4.5-4.1-11.2-0.3-15.7l-13-109.1c-0.3-5.4,3.9-9.9,9.2-10.2c5.3-0.3,9.9,3.8,10.2,9.2
	c0,0,0,0.1,0,0.1l11.7,109.2c0.4,0.4,0.8,0.9,1.2,1.4c3.9,5.4,2.7,13-2.7,17c0,0,0,0,0,0c-0.1,0.1-0.3,0.2-0.4,0.3l0,0
	c-3,2-6.8,2.5-10.3,1.5C597,464.6,595.1,463.4,593.6,461.7z"/>
<path class="st4" d="M581.7,353.7l20.9-2.3c0,0-1.5-27.8-1.5-34.8s-9.3-10.8-9.3-10.8l-4.6,1.5L581.7,353.7z"/>
<path class="st3" d="M513.7,392.3c0,0-17.8,32.5-17.8,71.9s-1.5,220.4-1.5,220.4s23.2,10.8,37.1-2.3L543.8,482l48.7,196.4
	c0,0,23.2,4.6,34-3.1l-20.9-136.9c0,0-8.5-128.3-31.7-137.6S513.7,392.3,513.7,392.3z"/>
<path class="st3" d="M517,263.2c9-6.5,16.3-14.1,21.2-23c0,0,16.6,18.4,26.7,19.3s0.9-22.1,0.9-22.1l-18.4-4.6l-17.5,1.8l-13.8,9.2
	L517,263.2z"/>
<path class="st4" d="M570.1,301.1c0,0,0.7-0.4-43.3,1.2l-18.4,5.1l-2.4,0.7c0,0,2.3,46.4,8.5,54.9s4.6,13.1,3.1,13.9
	s-5.4-0.8-3.1,3.1s5.4,1.5,2.3,3.9s-4.6,10.8-4.6,10.8l68,9.3c0,0,2.3-30.2,8.5-45.6s7.7-21.6,7.7-21.6l-4.6-30.9L570.1,301.1z"/>
<path class="st0" d="M440.8,169.2h-3.9V62c0-34.3-27.8-62-62-62H147.7c-34.3,0-62,27.8-62,62v588c0,34.3,27.8,62,62,62h227.1
	c34.3,0,62-27.8,62-62l0,0l0,0V245.5h3.9V169.2z"/>
<path class="st5" d="M423.7,62.5v587.2c0,25.6-20.7,46.3-46.2,46.3h0H149.1c-25.6,0-46.3-20.7-46.3-46.3V62.5
	c0-25.6,20.7-46.3,46.3-46.3h0h27.7c-4.6,11.3,0.8,24.1,12.1,28.7c2.6,1.1,5.5,1.6,8.3,1.6h130.1c12.2,0,22-9.9,22-22
	c0-2.9-0.6-5.7-1.6-8.3h29.6C402.9,16.1,423.6,36.8,423.7,62.5L423.7,62.5L423.7,62.5z"/>
<path class="st6" d="M423.7,149.3v-20h-30.3V19c-5.1-1.9-10.6-2.9-16.1-2.9h-3.9v113.2h-105V46.5h-20v82.9h-88V16.1h-11.2
	c-2.9,0-5.9,0.3-8.8,0.8v112.4h-37.6v20h37.6v46.3l-37.6,21.7v23.1l37.6-21.7v137.6h-37.6v20h37.6v199h-37.6v20h37.6v99.8
	c2.9,0.6,5.8,0.8,8.8,0.8h11.2V595.3h88V696h20V595.3h105V696h3.9c5.5,0,10.9-1,16.1-2.9v-97.8h30.3v-20h-30.3v-87h30v-20h-30v-92
	h30.3v-20h-30.3v-122h30.3v-20h-30.3v-65L423.7,149.3z M220.5,149.3L220.5,149.3l-60.1,34.7l0,0v-34.7H220.5z M160.4,207.2
	L160.4,207.2l88-50.8v200h-88V207.2z M160.4,575.3v-199h88v199H160.4z M373.4,575.3h-105v-87h105V575.3z M373.4,468.3h-105v-92h105
	V468.3z M373.4,356.3h-105v-122h105V356.3z M373.4,214.3h-105v-65h105V214.3z"/>
<path class="st1" d="M440.4,214.7c0,63.5-115,205-115,205s-115-141.5-115-205s51.5-115,115-115S440.4,151.2,440.4,214.7z"/>
<path class="st5" d="M393.4,209.7c0,37.6-30.4,68-68,68s-68-30.4-68-68s30.4-68,68-68l0,0l0,0C362.9,141.7,393.4,172.1,393.4,209.7
	C393.4,209.7,393.4,209.7,393.4,209.7L393.4,209.7z"/>
<circle class="st1" cx="325.1" cy="211.2" r="25.3"/>
<path class="st1" d="M361.9,269.1c-22.3,14.2-50.8,14.2-73.1,0c5.8-20.2,26.8-31.9,47-26.1C348.4,246.6,358.3,256.5,361.9,269.1z"/>
<circle class="st1" cx="325.4" cy="471.7" r="31"/>
<path class="st4" d="M805,712.7H1c-0.6,0-1-0.4-1-1s0.4-1,1-1h804c0.6,0,1,0.4,1,1S805.6,712.7,805,712.7z"/>
</svg>
